<?xml version="1.0" encoding="UTF-8"?>
<svg id="Layer_2" data-name="Layer 2" xmlns="http://www.w3.org/2000/svg" xmlns:xlink="http://www.w3.org/1999/xlink" viewBox="0 0 800 800">
  <defs>
    <style>
      .cls-1 {
        fill: #fff;
      }

      .cls-2 {
        fill: url(#linear-gradient);
      }
    </style>
    <linearGradient id="linear-gradient" x1="107.73" y1="107.05" x2="686.45" y2="687.12" gradientUnits="userSpaceOnUse">
      <stop offset="0" stop-color="#f48a84"/>
      <stop offset="1" stop-color="#ff1d25"/>
    </linearGradient>
  </defs>
  <g id="BG">
    <rect class="cls-2" width="800" height="800" rx="98.04" ry="98.04"/>
  </g>
  <g id="Layer_1-2" data-name="Layer 1">
    <path class="cls-1" d="m400,72c-181.15,0-328,146.85-328,328s146.85,328,328,328,328-146.85,328-328S581.15,72,400,72Zm264.32,225.7l4.57,12.45-46.3,17-4.57-12.45,46.3-17Zm-41.92-79.22l7.85,10.68-39.74,29.22-7.85-10.68,39.74-29.22Zm-53.83-57.04l10.03,8.67-32.26,37.31-10.03-8.67,32.26-37.31Zm-168.56,27.11c0,.31.07.62,0,.94-.07-.31,0-.62,0-.94Zm-171.56-27.11l32.26,37.31-10.03,8.67-32.26-37.31,10.03-8.67Zm-53.83,57.04l39.74,29.22-7.85,10.68-39.74-29.22,7.85-10.68Zm-41.92,79.22l46.3,17-4.57,12.45-46.3-17,4.57-12.45Zm-4.88,192.15l45.39-19.3,5.19,12.2-45.39,19.3-5.19-12.2Zm48.3,90.75l-8.67-10.03,37.31-32.26,8.67,10.03-37.31,32.26Zm42.9-177.6h-116v-14h116v14Zm17.16,233.25l-10.68-7.85,29.22-39.74,10.68,7.85-29.22,39.74ZM306.15,120.8l19.3,45.39-12.2,5.19-19.3-45.39,12.2-5.19Zm6,553.08l-12.45-4.57,17-46.3,12.45,4.57-17,46.3Zm94.85,21.11h-14v-116h14v116Zm-7.88-272.67c-13.09,0-23.7-9.77-23.7-21.83,0-8.58,5.37-15.99,13.18-19.56-8.18-24.85-13.64-78.41,11.4-190.52,24.61,113.1,19.02,166.61,10.94,191.17,7.1,3.77,11.87,10.83,11.87,18.92,0,12.06-10.61,21.83-23.7,21.83Zm85.74,251.56l-17-46.3,12.45-4.57,17,46.3-12.45,4.57Zm-1.1-502.5l-12.2-5.19,19.3-45.39,12.2,5.19-19.3,45.39Zm77.09,464.87l-29.22-39.74,10.68-7.85,29.22,39.74-10.68,7.85Zm60.06-55.65l-37.31-32.26,8.67-10.03,37.31,32.26-8.67,10.03Zm43.11-78.54l-45.39-19.3,5.19-12.2,45.39,19.3-5.19,12.2Zm-86.01-99.05v-14h116v14h-116Z"/>
  </g>
</svg>