<?xml version="1.0" encoding="UTF-8"?>
<svg xmlns="http://www.w3.org/2000/svg" viewBox="0 0 800 800">
  <defs>
    <style>
      .cls-1, .cls-2, .cls-3, .cls-4, .cls-5 {
        fill: #fff;
      }

      .cls-6 {
        fill: #5f422e;
      }

      .cls-2 {
        opacity: .9;
      }

      .cls-3 {
        opacity: .5;
      }

      .cls-4 {
        opacity: .6;
      }

      .cls-5 {
        opacity: .79;
      }
    </style>
  </defs>
  <g id="BG">
    <rect class="cls-6" width="800" height="800" rx="98.04" ry="98.04"/>
  </g>
  <g id="Layer_3" data-name="Layer 3">
    <path class="cls-1" d="m282.74,567.49c-20.05,43-71.15,61.6-114.15,41.55-43-20.05-61.79-71.24-41.74-114.24,17.96-38.52,60.99-57.38,100.28-46.66L386.06,107.3c1.7-3.65,4.93-6.16,8.42-7.45,3.5-1.27,7.59-1.17,11.24.53,7.28,3.4,10.54,12.11,7.14,19.41l-158.95,340.86c33.75,23.39,46.76,68.36,28.82,106.84Z"/>
    <g>
      <polygon class="cls-3" points="411.76 175.18 412.25 124.81 404.47 159.53 411.76 175.18"/>
      <path class="cls-3" d="m672.42,495.81c-17.96-38.52-60.99-57.38-100.28-46.66L413.21,108.31c-1.7-3.65-4.93-6.16-8.42-7.45-3.5-1.27-7.59-1.17-11.24.53-6.46,3.01-9.74,10.21-8.03,16.89-.49-7.07,4.3-13.66,11.42-15.26,3.93-.88,7.94-.1,11.09,1.88,3.14,2,5.76,5.15,6.64,9.08l29.15,129.95,101.53,217.74c-8.77,6.08-16.13,13.63-21.92,22.13,29.7,8.06,54.29,31.93,61.53,64.18,5.42,24.14.03,48.19-12.92,67.16,18.86,5.09,39.55,3.82,58.65-5.09,43-20.05,61.79-71.24,41.74-114.24Z"/>
    </g>
    <path class="cls-2" d="m382.4,585.31c-10.38,46.29-56.32,75.39-102.61,65.01-46.29-10.38-75.6-56.37-65.22-102.66,9.3-41.47,47.3-69.11,87.97-67.04l82.32-366.96c.88-3.93,3.49-7.07,6.64-9.08,3.15-1.99,7.17-2.76,11.09-1.88,7.84,1.76,12.89,9.58,11.12,17.43l-82.33,366.98c37.97,15.63,60.3,56.77,51.01,98.2Z"/>
    <g>
      <path class="cls-5" d="m408.73,495.1l3.6-369.71-30.91,137.8-2.25,231.61c-8.3,1.34-16.22,3.92-23.58,7.51,22.47,20.08,33.7,51.4,26.63,82.89-5.95,26.53-23.58,47.41-46.27,58.45,15.03,13.41,34.81,21.64,56.5,21.85,47.44.46,86.26-37.62,86.73-85.06.41-42.45-30.04-78.01-70.44-85.34Z"/>
      <path class="cls-5" d="m384.67,113.55c.28-1.27.76-2.44,1.37-3.53-1.91,2.42-3.19,5.43-3.23,8.72l-.03,3.24,1.89-8.42Z"/>
    </g>
    <path class="cls-4" d="m585.02,548.32c-9.3-41.47-47.3-69.11-87.97-67.04l-82.32-366.96c-.88-3.93-3.49-7.07-6.64-9.08-3.15-1.99-7.17-2.76-11.09-1.88-7.84,1.76-12.89,9.58-11.12,17.43l13.71,61.11,12.73-56.74-1.06,108.77,56.95,253.84c-10.95,4.51-20.59,11.15-28.56,19.3,24.01,15.43,39.82,42.48,39.52,73.14-.22,23.09-9.54,43.97-24.52,59.26,18.64,11.95,41.86,16.74,65.17,11.51,46.29-10.38,75.6-56.37,65.22-102.66Z"/>
  </g>
</svg>